<?xml version="1.0" encoding="UTF-8"?>
<svg xmlns="http://www.w3.org/2000/svg" xmlns:xlink="http://www.w3.org/1999/xlink" width="30px" height="40px" viewBox="0 0 30 40" version="1.1">
<g id="surface1">
<path style=" stroke:none;fill-rule:nonzero;fill:rgb(0%,0%,0%);fill-opacity:1;" d="M 30 15 L 25 15 L 25 25 L 15 25 L 15 35 L 0 35 L 0 33 L 13 33 L 13 23 L 23 23 L 23 13 L 30 13 Z M 28 18 L 28 28 L 18 28 L 18 38 L 5 38 L 5 40 L 20 40 L 20 30 L 30 30 L 30 18 Z M 30 33 L 23 33 L 23 40 L 25 40 L 25 35 L 30 35 Z M 0 0 L 0 30 L 10 30 L 10 20 L 20 20 L 20 10 L 30 10 L 30 0 Z M 0 0 "/>
</g>
</svg>
